<svg xmlns="http://www.w3.org/2000/svg" viewBox="0 0 189.3 150.66"><defs><style>.cls-1{fill:#141413;}.cls-2{fill:#ff1552;}</style></defs><title>Tavola disegno 8</title><g id="Livello_4" data-name="Livello 4"><path class="cls-1" d="M9,89.57H0L9.81,71.34H32l-8.65,32.29H37.27l8.65-32.29H65.56l-13.4,50H48.92l-36,29.29L.9,138.83l22.2-17.46H.46Z"/><path class="cls-1" d="M76.88,103.63l8.71-32.29H144L122.8,150.66H64.35l7.81-29.15H63.21l9.62-17.88ZM88.46,133h19.69L120.46,87H100.77Z"/><polygon class="cls-2" points="142.81 150.66 165.34 150.66 169.87 133.76 147.34 133.76 142.81 150.66"/><polygon class="cls-1" points="164.06 71.34 148.85 128.13 171.38 128.13 186.59 71.34 164.06 71.34"/><path class="cls-1" d="M54.91,0,44.69,58.9H32.57l4.6-26.33L27.93,58.9H16.39l-.08-25.14L12,58.9H0L10.27,0H25l.86,38.28L40.13,0Z"/><path class="cls-1" d="M83.5,0,81.16,58.9H68.67l.87-8.5H63l-2.09,8.5H48.75L66.91,0Zm-18,40.29h5L73.48,10.1H73Z"/><path class="cls-1" d="M114.43,0h12.12L116.28,58.9H104.41l-1.85-23.54.49-8.25L97.51,58.9H85.39L95.66,0h11.87l1.6,25.26-.62,8.34Z"/><path class="cls-1" d="M189.3,0,187,58.9H174.48l.86-8.5h-6.57l-2.1,8.5H154.56L172.71,0Zm-18,40.29h5.06l2.91-30.19h-.49Z"/><path class="cls-1" d="M141.72,9.44h8.17l-1.73,9.91,10.53,0L162.08,0H132.84l-4.62,26.36-3.07,17.46s0,.07,0,.11l-2.62,15h29.24l5.19-29.78H142.32l-1.77,10.1h4.12L142.86,49.5h-8.17"/></g></svg>